# xmcd
#
# Track frame offsets: 
#        150
#        16482
#        31750
#        49402
#        66137
#        86160
#        106687
#        122385
#        142802
#        161455
#        177080
#        195672
#        215897
#        231717
#        249437
#
# Disc length: 3632 seconds
#
# Revision: 0
# Processed by: cddbd v1.5.2PL0 Copyright (c) Steve Scherf et al.
# Submitted via: ExactAudioCopy v0.99pb4
#
DISCID=cb0e2e0f
DTITLE=Na Leo - Colours
DYEAR=1997
DGENRE=World
TTITLE0=Colors Within Their Eyes
TTITLE1=The Rest Of Your Life
TTITLE2=Two Souls
TTITLE3=Taro Patch Twist
TTITLE4=Why
TTITLE5=He's Got Me (Wrapped Around His Finger)
TTITLE6=Could It Be
TTITLE7=Not The I But The You In Me
TTITLE8=Never Enough
TTITLE9=No Tears
TTITLE10=Nani No Ke Ko'olau
TTITLE11=You Are Everything
TTITLE12=Endlessly
TTITLE13=Let Him Lead
TTITLE14=Pacific Oasis
EXTD=
EXTT0=
EXTT1=
EXTT2=
EXTT3=
EXTT4=
EXTT5=
EXTT6=
EXTT7=
EXTT8=
EXTT9=
EXTT10=
EXTT11=
EXTT12=
EXTT13=
EXTT14=
PLAYORDER=
